<svg id="Capa_1" enable-background="new 0 0 512 512" height="512" viewBox="0 0 512 512" width="512" xmlns="http://www.w3.org/2000/svg"><g><g><path d="m279.507 504.103h-47.015c-3.866 0-7-3.134-7-7v-482.206c0-3.866 3.134-7 7-7h47.015c3.866 0 7 3.134 7 7v482.207c0 3.865-3.134 6.999-7 6.999z" fill="#9d6b6b"/></g><g><path d="m279.513 7.897h-24.606c3.863 0 7.994 3.132 7.994 6.995v482.218c0 3.863-4.131 6.995-7.994 6.995h24.606c3.863 0 6.995-3.132 6.995-6.995v-482.219c-.001-3.863-3.132-6.994-6.995-6.994z" fill="#8b5e5e"/></g><g><path d="m440.89 166.23h-162.907c-2.759 0-4.996-2.237-4.996-4.996v-95.676c0-2.759 2.237-4.996 4.996-4.996h162.907c4.886 0 9.603 1.79 13.259 5.032l48.002 42.568c3.138 2.783 3.138 7.683 0 10.466l-48.002 42.568c-3.655 3.243-8.372 5.034-13.259 5.034z" fill="#f6e266"/></g><g><path d="m440.89 310.913h-162.907c-2.759 0-4.996-2.237-4.996-4.996v-95.675c0-2.759 2.237-4.996 4.996-4.996h162.907c4.886 0 9.603 1.79 13.259 5.032l48.002 42.568c3.138 2.783 3.138 7.683 0 10.466l-48.002 42.568c-3.655 3.243-8.372 5.033-13.259 5.033z" fill="#f6e266"/></g><g><path d="m502.152 108.163-18.092-16.043-43.994 39.013c-3.656 3.242-8.373 5.032-13.259 5.032h-153.82v25.069c0 2.759 2.237 4.996 4.996 4.996h162.907c4.886 0 9.603-1.79 13.259-5.032l48.002-42.568c3.139-2.784 3.139-7.684.001-10.467z" fill="#f1d333"/></g><g><path d="m502.152 252.846-18.092-16.043-43.994 39.013c-3.656 3.242-8.373 5.032-13.259 5.032h-153.82v25.069c0 2.759 2.237 4.996 4.996 4.996h162.907c4.886 0 9.603-1.79 13.259-5.032l48.002-42.568c3.139-2.783 3.139-7.684.001-10.467z" fill="#f1d333"/></g><g><path d="m71.11 132.904h162.907c2.759 0 4.996 2.237 4.996 4.996v95.675c0 2.759-2.237 4.996-4.996 4.996h-162.907c-4.886 0-9.603-1.79-13.259-5.032l-48.003-42.568c-3.138-2.783-3.138-7.683 0-10.466l48.002-42.568c3.656-3.243 8.373-5.033 13.26-5.033z" fill="#f6e266"/></g><g><path d="m234.017 132.904h-23.446v71.23c0 2.759-2.237 4.996-4.996 4.996h-175.25l27.525 24.409c3.656 3.242 8.373 5.032 13.259 5.032h162.907c2.759 0 4.996-2.237 4.996-4.996v-95.675c.001-2.759-2.236-4.996-4.995-4.996z" fill="#f1d333"/></g><g><path d="m217.998 397.846c0 4.139 3.355 7.494 7.494 7.494s7.494-3.355 7.494-7.494v-151.781h1.03c6.887 0 12.49-5.603 12.49-12.49v-95.675c0-6.887-5.603-12.49-12.49-12.49h-162.906c-6.725 0-13.2 2.458-18.231 6.92l-48.004 42.568c-3.099 2.748-4.875 6.699-4.875 10.84s1.777 8.092 4.876 10.839l48.003 42.568c5.031 4.462 11.506 6.919 18.231 6.919h146.889v151.782zm-155.175-169.914-47.581-42.195 47.581-42.194c2.287-2.028 5.23-3.145 8.287-3.145h160.41v90.679h-160.41c-3.057 0-6-1.117-8.287-3.145z"/><path d="m507.124 247.239-48.003-42.568c-5.031-4.462-11.506-6.919-18.231-6.919h-146.888v-24.028h146.888c6.725 0 13.2-2.458 18.231-6.919l48.003-42.568c3.099-2.748 4.876-6.699 4.876-10.84s-1.777-8.092-4.876-10.84l-48.003-42.568c-5.031-4.462-11.506-6.919-18.231-6.919h-80.909c-4.139 0-7.494 3.355-7.494 7.494s3.355 7.494 7.494 7.494h80.909c3.057 0 6 1.117 8.287 3.145l47.581 42.195-47.581 42.195c-2.287 2.028-5.23 3.145-8.287 3.145h-160.41v-90.682h41.376c4.139 0 7.494-3.355 7.494-7.494s-3.355-7.494-7.494-7.494h-27.856v-38.177c0-7.989-6.5-14.489-14.489-14.489h-47.026c-7.989 0-14.489 6.5-14.489 14.489v80.107c0 4.139 3.355 7.494 7.494 7.494s7.494-3.355 7.494-7.494v-79.607h46.027v37.677h-1.03c-6.887 0-12.49 5.603-12.49 12.49v95.675c0 6.887 5.603 12.49 12.49 12.49h1.03v24.028h-1.03c-6.887 0-12.49 5.603-12.49 12.49v95.675c0 6.887 5.603 12.49 12.49 12.49h1.03v178.202h-46.027v-61.64c0-4.139-3.355-7.494-7.494-7.494s-7.494 3.355-7.494 7.494v62.14c0 7.989 6.5 14.489 14.489 14.489h47.026c7.989 0 14.489-6.5 14.489-14.489v-178.701h146.89c6.725 0 13.199-2.457 18.231-6.919l48.003-42.568c3.099-2.748 4.876-6.699 4.876-10.84 0-4.142-1.777-8.093-4.876-10.841zm-57.947 53.035c-2.287 2.029-5.23 3.146-8.287 3.146h-160.41v-90.68h160.41c3.057 0 6 1.117 8.287 3.145l47.581 42.195z"/><path d="m196.138 162.704h-47.026c-4.139 0-7.494 3.355-7.494 7.494s3.355 7.494 7.494 7.494h47.026c4.139 0 7.494-3.355 7.494-7.494s-3.356-7.494-7.494-7.494z"/><path d="m196.138 193.783h-47.026c-4.139 0-7.494 3.355-7.494 7.494s3.355 7.494 7.494 7.494h47.026c4.139 0 7.494-3.355 7.494-7.494 0-4.138-3.356-7.494-7.494-7.494z"/><path d="m443.619 235.334h-47.026c-4.139 0-7.494 3.355-7.494 7.494s3.355 7.494 7.494 7.494h47.026c4.139 0 7.494-3.355 7.494-7.494s-3.355-7.494-7.494-7.494z"/><path d="m414.876 266.414h-18.283c-4.139 0-7.494 3.355-7.494 7.494s3.355 7.494 7.494 7.494h18.283c4.139 0 7.494-3.355 7.494-7.494s-3.355-7.494-7.494-7.494z"/><path d="m396.593 105.35h47.026c4.139 0 7.494-3.355 7.494-7.494s-3.355-7.494-7.494-7.494h-47.026c-4.139 0-7.494 3.355-7.494 7.494s3.356 7.494 7.494 7.494z"/><path d="m396.593 136.43h46.471c4.139 0 7.494-3.355 7.494-7.494s-3.355-7.494-7.494-7.494h-46.471c-4.139 0-7.494 3.355-7.494 7.494s3.356 7.494 7.494 7.494z"/></g><g fill="#e49542"><path d="m308.233 238.132v39.11c0 1.522 1.234 2.757 2.757 2.757h12.578c1.522 0 2.757-1.234 2.757-2.757v-4.339c0-6.773 5.527-12.823 12.299-12.947 7.029-.129 12.768 5.531 12.768 12.531v4.754c0 1.522 1.234 2.757 2.757 2.757h12.578c1.522 0 2.757-1.234 2.757-2.757v-39.11c0-2.368-1.92-4.288-4.288-4.288h-52.676c-2.368.001-4.287 1.92-4.287 4.289z"/><path d="m325.671 106.596-7.572-13.115c-.861-1.492-3.014-1.492-3.876 0l-4.459 7.722c-.982 1.701-1.499 3.63-1.499 5.594v24.258c0 .803.651 1.453 1.453 1.453h58.2c.803 0 1.453-.651 1.453-1.453v-25.08c0-1.964-.517-3.893-1.499-5.594l-3.984-6.9c-.861-1.492-3.014-1.492-3.876 0l-7.572 13.115c-.861 1.492-3.014 1.492-3.876 0l-7.572-13.115c-.861-1.492-3.014-1.492-3.876 0l-7.572 13.115c-.859 1.492-3.012 1.492-3.873 0z"/><path d="m98.075 160.661c-1.081-1.277-3.049-1.277-4.13 0l-18.919 22.342c-.966 1.141-1.497 2.588-1.497 4.084v15.905c0 1.244 1.008 2.252 2.252 2.252h40.459c1.244 0 2.252-1.008 2.252-2.252v-15.905c0-1.495-.53-2.942-1.497-4.084z"/></g><path d="m366.725 287.498h-12.578c-5.656 0-10.257-4.601-10.257-10.256v-4.754c0-1.362-.535-2.637-1.507-3.591-.971-.954-2.258-1.462-3.624-1.441-2.583.047-4.936 2.644-4.936 5.448v4.339c0 5.655-4.601 10.256-10.256 10.256h-12.578c-5.656 0-10.257-4.601-10.257-10.256v-39.11c0-6.5 5.288-11.788 11.788-11.788h52.673c6.5 0 11.788 5.288 11.788 11.788v39.11c.001 5.653-4.6 10.255-10.256 10.255zm-7.834-15h3.091v-31.154h-46.25v31.154h3.096c.219-10.714 9.132-19.848 19.658-20.04 5.397-.103 10.54 1.938 14.407 5.735 3.868 3.798 5.998 8.875 5.998 14.294z"/><g><path d="m367.918 140.008h-58.199c-4.937 0-8.954-4.017-8.954-8.954v-24.257c0-3.275.866-6.506 2.503-9.344l4.459-7.723c1.734-3.003 4.965-4.869 8.433-4.869h.001c3.468 0 6.699 1.866 8.433 4.87l3.014 5.22 3.015-5.221c1.734-3.003 4.965-4.869 8.433-4.869s6.699 1.865 8.433 4.868l3.015 5.222 3.014-5.221c1.734-3.003 4.965-4.869 8.433-4.869s6.699 1.865 8.433 4.868l3.984 6.901c1.638 2.837 2.504 6.068 2.504 9.344v25.08c0 4.938-4.017 8.954-8.954 8.954zm-52.152-15h46.106s-.018-19.45-.053-19.655l-2.882 4.993c-1.734 3.003-4.965 4.869-8.433 4.869s-6.699-1.865-8.433-4.868l-3.015-5.222-3.015 5.221c-1.734 3.003-4.965 4.869-8.433 4.869-3.467 0-6.699-1.865-8.433-4.868l-3.012-5.216c-.26.515-.397 19.877-.397 19.877z"/></g><g><path d="m116.239 212.743h-40.459c-5.377 0-9.751-4.375-9.751-9.751v-15.905c0-3.266 1.162-6.437 3.272-8.93l18.92-22.343c1.941-2.294 4.78-3.611 7.788-3.611 3.007 0 5.847 1.315 7.79 3.611l18.919 22.342c2.111 2.494 3.273 5.665 3.273 8.931v15.905c-.001 5.377-4.375 9.751-9.752 9.751zm-35.211-15h29.962v-10.224l-14.981-17.691-14.981 17.691z"/></g></g></svg>