<svg id="Layer_1" enable-background="new 0 0 512.081 512.081" height="512" viewBox="0 0 512.081 512.081" width="512" xmlns="http://www.w3.org/2000/svg"><g><path d="m504.541 341.101v163.48h-252.73v-163.48c-.06-12.68 9.43-23.38 22.03-24.81l82.15-8.19h44.37l82.16 8.19c12.59 1.43 22.08 12.13 22.02 24.81z" fill="#f76ba0"/><path d="m504.541 341.101v163.48h-252.73v-15.77h209.95c11.17 0 20.22-9.05 20.22-20.22v-115.46c0-7.86-5.04-14.84-12.5-17.32l-83.51-27.71h14.39l82.16 8.19c12.59 1.43 22.08 12.13 22.02 24.81z" fill="#ce547e"/><g fill="#ffc796"><path d="m325.353 190.552h-33.806c-10.047 0-18.191-8.15-18.191-18.203s8.145-18.203 18.191-18.203h33.894z"/><path d="m441.969 190.552h23.806c10.047 0 18.191-8.15 18.191-18.203s-8.145-18.203-18.191-18.203h-23.894z"/></g><path d="m340.983 82.441h72.796v-38.463c0-20.102-16.296-36.398-36.398-36.398-20.102 0-36.398 16.296-36.398 36.398z" fill="#f77a49"/><g><path d="m451.447 92.972v51.978l-72.93 41.438-.03.02-73.17-41.458v-53.988c0-19.669 15.9-35.619 35.53-35.689h72.93c20.8.001 37.67 16.88 37.67 37.699z" fill="#f77a49"/><path d="m451.447 92.972v51.978l-72.93 41.438v-93.416c0-20.779-16.79-37.629-37.54-37.699h72.8c20.8.001 37.67 16.88 37.67 37.699z" fill="#e85941"/></g><g><path d="m398.928 301.849c.28 2.29.74 4.45 1.44 6.26 0 12.26-9.94 22.199-22.19 22.199s-22.18-9.94-22.18-22.199c.71-1.85 1.18-4.06 1.46-6.41.81-6.94-.08-15.1-1.46-18.859h44.37c-1.4 3.789-2.29 12.039-1.44 19.009z" fill="#ffe6c7"/><path d="m398.928 301.849c-6.35 3.14-13.4 4.79-20.59 4.77-7.3.01-14.44-1.69-20.88-4.92.81-6.94-.08-15.1-1.46-18.859h44.37c-1.4 3.789-2.29 12.039-1.44 19.009z" fill="#ffd5b0"/></g><g><path d="m452.197 215.649c0 15.289-11.28 33.179-33.59 53.268-3.39 3.05-7.04 6.16-10.94 9.32-8.29 6.73-18.64 10.409-29.33 10.379-10.7.02-21.08-3.65-29.37-10.399-29.53-23.899-44.51-44.948-44.51-62.568 0-1.87.07-3.74.23-5.54.76-7.75 1.04-42.218.63-65.147 5.25 1.33 10.75 2.04 16.41 2.04 23.48 0 44.93-12.18 56.76-30.579.01-.02.02-.03.03-.05 11.81 18.429 32.61 30.629 56.11 30.629 5.81 0 11.45-.74 16.82-2.15-.02 22.679-.23 57.548.53 65.208.15 1.85.22 3.72.22 5.589z" fill="#ffe6c7"/><path d="m452.197 215.649c0 15.289-11.28 33.179-33.59 53.268 10.75-15.079 13.59-39.158 13.59-53.268 0-1.87-.08-3.74-.23-5.58-.61-6.19-.58-14.779-.55-35.959.02-8.82-3.8-14.809-14.45-18.779-18.35-6.84-38.48-23.598-38.48-38.908.01-.02.02-.03.03-.05 11.81 18.429 32.61 30.629 56.11 30.629 5.81 0 11.45-.74 16.82-2.15-.02 22.679-.23 57.548.53 65.208.15 1.85.22 3.72.22 5.589z" fill="#ffd5b0"/></g><g><g><path d="m231.006 121.35-169.65-.904-26.32-.141c-6.13-32.034-4.09-77.517 26.32-80.472 2.49-.273 4.62-1.882 5.56-4.197 6.98-14.888 22.76-22.84 41.3-26.153 20.67-3.68 44.77-1.59 63.89 3.096 23.26 5.675 49.82 17.721 57.65 43.158 6.43 19.961 5.45 45.069 1.25 65.613z" fill="#b77e5a"/><path d="m231.006 121.35-169.65-.904c-2.37-7.265-2.39-12.018-2.39-12.018-.85-36.147 95.51-40.41 133.84-35.385 9.15 1.195 16.69-6.785 14.05-15.104-.04-.113-.07-.216-.1-.32-7.83-25.437-34.39-37.483-57.65-43.158-12.31-3.011-26.69-4.96-40.89-4.978 20.67-3.68 44.77-1.59 63.89 3.096 23.26 5.675 49.82 17.721 57.65 43.158 6.43 19.961 5.45 45.069 1.25 65.613z" fill="#98654c"/></g><path d="m256.141 304.081v200.5h-248.6v-200.5c-.06-12.68 9.43-23.38 22.02-24.81l80.1-8.19h44.37l80.09 8.19c12.59 1.43 22.09 12.13 22.02 24.81z" fill="#feac38"/><path d="m256.141 304.081v200.5h-248.6v-15.77h232.95v-185.34l-108.79-32.39h22.33l80.09 8.19c12.59 1.43 22.09 12.13 22.02 24.81z" fill="#f9893c"/><g fill="#ffc796"><path d="m79.017 153.534h-33.806c-10.047 0-18.191-8.15-18.191-18.203s8.145-18.203 18.191-18.203h33.894z"/><path d="m195.633 153.534h23.806c10.047 0 18.191-8.15 18.191-18.203s-8.145-18.203-18.191-18.203h-23.894z"/></g><g><path d="m152.587 264.827c.28 2.29.74 4.45 1.44 6.26 0 12.26-9.94 22.199-22.19 22.199s-22.18-9.94-22.18-22.199c.71-1.85 1.18-4.06 1.46-6.41.81-6.94-.08-15.1-1.46-18.859h44.37c-1.4 3.79-2.29 12.04-1.44 19.009z" fill="#ffe6c7"/><path d="m152.587 264.827c-6.35 3.14-13.4 4.79-20.59 4.77-7.3.01-14.44-1.69-20.88-4.92.81-6.94-.08-15.1-1.46-18.859h44.37c-1.4 3.79-2.29 12.04-1.44 19.009z" fill="#ffd5b0"/></g><g><path d="m205.871 178.632c0 17.029-13.97 37.239-41.55 60.138-.01.02-.02.03-.04.04-.97.79-1.95 1.6-2.95 2.41-8.28 6.74-18.64 10.41-29.33 10.379-10.7.02-21.07-3.65-29.37-10.4-29.53-23.899-44.51-44.948-44.51-62.568 0-1.87.07-3.74.23-5.54.77-7.79 1.04-42.598.62-65.527-.2-7.62 4-14.659 10.79-18.119.03-.01.06-.02.11-.05 30.44-13.399 94.21-13.359 124.24 0 6.9 3.39 11.2 10.48 11 18.169v.02c-.01 22.669-.23 57.778.53 65.468.15 1.84.23 3.71.23 5.58z" fill="#ffe6c7"/><path d="m205.871 178.632c0 17.029-13.97 37.239-41.55 60.138 14.53-13.389 22.55-43.608 22.55-60.138 0-1.87-.08-3.74-.23-5.58-.612-6.187-.589-30.774-.551-51.954.016-8.823-5.929-16.523-14.458-18.785-35.205-9.337-75.654-10.173-101.761-12.917 30.44-13.399 94.21-13.359 124.24 0 6.9 3.39 11.2 10.48 11 18.169v.02c-.01 22.669-.23 57.778.53 65.468.15 1.839.23 3.709.23 5.579z" fill="#ffd5b0"/></g></g><g><path d="m342.671 459.101v45.48h-173.25v-45.48c0-25.8 20.9-46.72 46.69-46.72h79.86c25.79 0 46.7 20.92 46.7 46.72z" fill="#997ab8"/><path d="m342.671 459.101v45.48h-173.25v-15.77h135.21c9.72 0 17.6-7.88 17.6-17.59v-17.51c0-22.83-18.5-41.33-41.33-41.33h15.07c25.79 0 46.7 20.92 46.7 46.72z" fill="#6957a1"/><g><path d="m276.208 406.954c.29 1.98.72 3.83 1.33 5.42 0 12.26-9.93 22.209-22.18 22.209-12.26 0-22.19-9.95-22.19-22.209.61-1.58 1.04-3.43 1.33-5.41 1.03-7.13.13-15.909-1.33-19.849h44.37c-1.45 3.939-2.35 12.709-1.33 19.839z" fill="#ffe6c7"/><path d="m276.208 406.954c-5.89 4.79-13.26 7.4-20.86 7.38-7.58.01-14.95-2.59-20.85-7.37 1.03-7.13.13-15.909-1.33-19.849h44.37c-1.45 3.939-2.35 12.709-1.33 19.839z" fill="#ffd5b0"/></g><path d="m206.695 332.285h-7.736c-6.062 0-11.56-4.01-12.971-9.905-2.076-8.673 4.442-16.403 12.766-16.403h7.983l9.979 13.155z" fill="#ffc796"/><path d="m303.981 332.285h7.736c6.062 0 11.56-4.01 12.971-9.905 2.076-8.673-4.442-16.403-12.766-16.403h-7.983l-9.979 13.155z" fill="#ffc796"/><g><path d="m304.556 347.736c0 11.47-9.53 25.119-28.33 40.588-.44.36-.88.73-1.33 1.09-5.52 4.49-12.42 6.94-19.54 6.92-7.12.01-14.03-2.44-19.56-6.93-19.67-15.919-29.64-29.939-29.64-41.668 0-1.25.04-2.5.15-3.69.49-5.01.61-28.409.37-43.648 0-24.879 18.62-45.388 42.69-48.348 1.96-.25 3.97-.37 6-.37 26.89 0 48.69 21.809 48.69 48.718-.01 15.099-.16 38.498.35 43.618.1 1.22.15 2.47.15 3.72z" fill="#ffe6c7"/><path d="m304.556 347.736c0 11.47-9.53 25.119-28.33 40.588 11.191-10.075 10.33-31.889 10.33-40.588 0-1.25-.05-2.5-.15-3.72-.51-5.12-.36-28.519-.35-43.618 0-24.879-12.63-45.388-36.69-48.348 1.96-.25 3.97-.37 6-.37 26.89 0 48.69 21.809 48.69 48.718-.01 15.099-.16 38.498.35 43.618.1 1.22.15 2.47.15 3.72z" fill="#ffd5b0"/></g></g></g><g><path d="m178.82 280.957c3.82 0 7.086-2.906 7.457-6.787.395-4.124-2.629-7.786-6.752-8.18l-19.474-1.862c-.539-4.249-.299-9.508.343-13.063 1.964-1.211 3.855-2.552 5.656-4.016 31.839-25.761 47.316-48.141 47.316-68.419 0-2.076-.086-4.164-.255-6.207-.003-.039-.006-.078-.01-.117-.191-1.933-.315-5.995-.395-11.271h6.733c14.167 0 25.692-11.53 25.692-25.703 0-6.276-2.26-12.034-6.009-16.502 4.323-23.887 3.544-47.532-2.197-65.336-7.151-23.231-28.948-39.908-63.028-48.226-43.649-10.686-97.852-6.755-113.75 27.123-9.635 1.064-17.837 5.787-23.745 13.68-12.834 17.15-13.416 47.244-9.5 71.247-4.564 4.642-7.383 11.005-7.383 18.015 0 14.173 11.525 25.703 25.691 25.703h6.165c-.129 5.31-.297 9.368-.496 11.392-.172 1.933-.259 4.02-.259 6.203 0 20.273 15.471 42.646 47.279 68.385 1.708 1.39 3.495 2.667 5.349 3.83.675 3.565.936 8.976.38 13.32l-74.912 7.658c-16.433 1.869-28.76 15.755-28.676 32.264v200.495c0 4.142 3.358 7.5 7.5 7.5s7.5-3.358 7.5-7.5v-200.536c-.045-8.873 6.562-16.319 15.286-17.312l72.977-7.46c3.561 12.409 15.007 21.515 28.538 21.515 13.547 0 25.005-9.128 28.551-21.561l17.704 1.693c.244.024.485.035.724.035zm51.311-145.625c0 5.902-4.796 10.703-10.692 10.703h-6.852c-.022-6.978-.015-14.464-.003-21.407h6.856c5.895 0 10.691 4.802 10.691 10.704zm-178.521 10.703h-6.399c-5.895 0-10.691-4.801-10.691-10.703s4.796-10.704 10.691-10.704h6.446c.032 7.237.014 14.627-.047 21.407zm80.232 139.756c-7.719 0-14.065-5.993-14.643-13.576 1.364-4.373 1.834-9.678 1.715-14.711 4.222 1.051 8.576 1.595 12.962 1.595h.243c4.279 0 8.526-.517 12.647-1.517-.112 5.009.36 10.281 1.717 14.632-.576 7.583-6.923 13.577-14.641 13.577zm.244-41.692h-.176c-8.918 0-17.632-3.095-24.559-8.731-27.301-22.091-41.731-41.711-41.731-56.738 0-1.742.067-3.382.193-4.804.836-8.5 1.064-44.214.655-66.466-.124-4.672 2.462-9.045 6.602-11.187 3.259-1.421 7.062-2.72 11.306-3.861 4-1.076 6.371-5.19 5.295-9.19s-5.188-6.371-9.19-5.295c-5.057 1.36-9.645 2.941-13.638 4.699-.112.049-.223.102-.333.156-9.414 4.708-15.316 14.55-15.039 25.015.012.637.023 1.281.033 1.933h-6.296c-1.438 0-2.849.119-4.223.347-2.498-19.307-1.809-42.577 7.427-54.918 3.509-4.689 7.983-7.237 13.773-7.799 5.147-.567 9.568-3.857 11.594-8.609 6.991-14.732 24.927-20.254 38.765-22.293 17.285-2.547 38.346-1.278 57.791 3.482 19.994 4.88 45.29 15.445 52.284 38.163 4.579 14.203 5.498 32.865 2.695 52.305-1.888-.443-3.854-.678-5.875-.678h-6.829c.001-.668.001-1.327.002-1.978.234-10.548-5.722-20.351-15.197-24.996-.083-.041-.168-.081-.253-.119-18.836-8.379-50.2-12.259-81.855-10.126-4.133.278-7.257 3.854-6.979 7.987.278 4.132 3.854 7.264 7.987 6.979 28.841-1.943 58.098 1.512 74.611 8.804 4.189 2.109 6.811 6.485 6.688 11.184-.001.063-.002.148-.002.212l.556 66.139c.132 1.616.2 3.269.2 4.916 0 15.032-14.438 34.659-41.764 56.769-6.907 5.61-15.598 8.698-24.518 8.698z"/><path d="m483.325 308.835-75.231-8.153c-.599-.065-1.188-.057-1.761.015-.468-4.166-.223-9.183.397-12.614 1.964-1.211 3.855-2.552 5.656-4.016 31.839-25.761 47.316-48.141 47.316-68.42 0-2.076-.086-4.164-.255-6.206-.003-.039-.006-.078-.01-.116-.191-1.933-.315-5.995-.395-11.272h6.734c14.167 0 25.691-11.53 25.691-25.703s-11.525-25.704-25.691-25.704h-6.83c.001-.567.001-1.129.002-1.682 0-.002 0-.005 0-.007v-17.053c0-4.142-3.358-7.5-7.5-7.5s-7.5 3.358-7.5 7.5v10.864c-3.07.487-6.188.733-9.321.733-20.177 0-38.738-10.161-49.651-27.18-1.377-2.147-3.751-3.448-6.302-3.452l-1.001.001c-2.547.008-4.916 1.308-6.291 3.452-10.913 17.019-29.474 27.179-49.65 27.179-2.994 0-5.976-.225-8.915-.67v-47.86c0-15.545 12.636-28.191 28.168-28.191h72.796c16.635 0 30.168 13.544 30.168 30.192 0 4.142 3.358 7.5 7.5 7.5s7.5-3.358 7.5-7.5c0-22.363-16.319-40.984-37.668-44.569v-4.425c0-24.206-19.692-43.898-43.898-43.898s-43.898 19.692-43.898 43.898v4.454c-20.241 3.562-35.668 21.281-35.668 42.538v53.985c0 .02.001.039.001.059v.075c.009.513.018 1.032.027 1.555h-6.296c-14.167 0-25.691 11.531-25.691 25.704s11.525 25.703 25.691 25.703h6.163c-.129 5.318-.295 9.378-.493 11.39-.172 1.932-.26 4.019-.26 6.205 0 20.273 15.471 42.646 47.279 68.385 1.708 1.39 3.495 2.668 5.349 3.83.924 4.882 1.072 13.223-.592 17.549-.331.859-.5 1.772-.5 2.693 0 16.378 13.317 29.704 29.685 29.704 13.767 0 25.375-9.427 28.717-22.168l74.775 8.104c8.808 1.001 15.416 8.448 15.37 17.359v163.478c0 4.142 3.358 7.5 7.5 7.5s7.5-3.358 7.5-7.5v-163.438c.082-16.547-12.245-30.434-28.717-32.307zm-24.406-147.189h6.856c5.895 0 10.691 4.802 10.691 10.704s-4.796 10.703-10.691 10.703h-6.853c-.022-6.978-.015-14.464-.003-21.407zm-110.436-117.667c0-15.935 12.963-28.898 28.898-28.898s28.898 12.963 28.898 28.898v3.801h-57.796zm-50.54 139.073h-6.397c-5.895 0-10.691-4.801-10.691-10.703s4.796-10.704 10.691-10.704h6.444c.032 7.231.014 14.623-.047 21.407zm80.235 139.756c-7.718 0-14.065-5.994-14.642-13.576 1.364-4.373 1.834-9.677 1.715-14.71 4.222 1.052 8.578 1.595 12.965 1.595h.238c4.28 0 8.528-.517 12.65-1.517-.112 5.009.36 10.281 1.717 14.632-.578 7.583-6.925 13.576-14.643 13.576zm.242-41.691h-.098c-8.955-.031-17.688-3.079-24.635-8.732-27.301-22.092-41.731-41.711-41.731-56.738 0-1.743.067-3.382.194-4.804.72-7.318.989-35.188.785-56.861 2.911.346 5.849.52 8.794.52 22.009 0 42.483-9.634 56.448-26.178 13.964 16.544 34.439 26.178 56.448 26.178 3.12 0 6.229-.195 9.308-.583-.001.81-.003 1.627-.005 2.451-.043 22.246-.092 47.451.575 54.364.132 1.615.199 3.268.199 4.913 0 15.032-14.438 34.659-41.764 56.77-6.905 5.612-15.597 8.7-24.518 8.7z"/><path d="m295.971 404.879h-12.468c-.493-4.495-.162-9.955.569-13.344 18.815-16.139 27.979-30.502 27.979-43.8 0-1.455-.06-2.917-.179-4.342-.003-.039-.007-.077-.01-.116-.071-.724-.128-1.928-.174-3.492h.027c9.725 0 18.058-6.439 20.265-15.66 1.507-6.298.109-12.779-3.837-17.781-3.945-5-9.857-7.869-16.222-7.869h-.405c-.211-6.313-1.464-12.475-3.731-18.344-1.493-3.864-5.835-5.785-9.699-4.293-3.864 1.493-5.786 5.835-4.293 9.699 1.829 4.732 2.756 9.732 2.756 14.856l.38 44.29c.082.999.123 2.025.123 3.051 0 9.098-9.545 21.831-26.892 35.866-4.154 3.376-9.381 5.234-14.758 5.234-.036 0-.07 0-.105 0-5.366 0-10.609-1.862-14.782-5.258-17.324-14.019-26.865-26.748-26.865-35.842 0-1.087.042-2.104.117-2.954.572-5.817.62-30.567.4-44.438.029-22.705 18.496-41.166 41.191-41.166 6.783 0 13.239 1.593 19.19 4.736 3.661 1.933 8.2.533 10.134-3.13s.533-8.2-3.13-10.134c-8.018-4.233-17.075-6.471-26.194-6.471-30.34 0-55.141 24.185-56.158 54.298h-.446c-6.364 0-12.276 2.868-16.222 7.868-3.946 5.002-5.345 11.483-3.838 17.781 2.207 9.221 10.54 15.66 20.265 15.66h.064c-.056 1.636-.12 2.874-.191 3.596-.121 1.359-.183 2.824-.183 4.354 0 13.304 9.174 27.674 27.996 43.813.73 3.39 1.059 8.842.567 13.331h-11.102c-29.883 0-54.195 24.325-54.195 54.225v45.477c0 4.142 3.358 7.5 7.5 7.5s7.5-3.358 7.5-7.5v-45.477c0-21.629 17.583-39.225 39.195-39.225h10.521c3.33 12.759 14.946 22.204 28.726 22.204s25.397-9.444 28.727-22.204h11.887c21.612 0 39.194 17.596 39.194 39.225v45.477c0 4.142 3.358 7.5 7.5 7.5s7.5-3.358 7.5-7.5v-45.477c.001-29.899-24.311-54.224-54.194-54.224zm15.556-91.403h.394c1.743 0 3.363.787 4.445 2.159.637.807 1.617 2.53 1.026 4.999-.576 2.405-2.963 4.151-5.677 4.151h-.188c-.008-3.708-.005-7.595 0-11.309zm-112.261 11.309h-.307c-2.714 0-5.102-1.746-5.677-4.151-.591-2.469.39-4.192 1.027-4.999 1.082-1.372 2.702-2.159 4.445-2.159h.53c.011 3.846.005 7.698-.018 11.309zm56.092 102.298c-7.718 0-14.065-5.994-14.642-13.576 1.111-3.563 1.629-7.745 1.719-11.894 4.1 1.458 8.444 2.222 12.829 2.222h.171c4.397 0 8.746-.765 12.847-2.224.089 4.15.607 8.332 1.719 11.896-.578 7.582-6.925 13.576-14.643 13.576z"/><path d="m147.923 187.118c-4.142 0-7.5 3.358-7.5 7.5 0 4.725-3.838 8.569-8.556 8.569s-8.556-3.844-8.556-8.569c0-4.142-3.358-7.5-7.5-7.5s-7.5 3.358-7.5 7.5c0 12.996 10.567 23.569 23.556 23.569s23.556-10.573 23.556-23.569c0-4.142-3.358-7.5-7.5-7.5z"/><path d="m120.562 172.657c3.673 1.916 8.203.49 10.117-3.184.227-.436.737-.901 1.485-.901.749 0 1.258.465 1.485.9 1.337 2.566 3.951 4.035 6.657 4.035 1.167 0 2.353-.273 3.46-.851 3.673-1.914 5.099-6.444 3.185-10.117-2.883-5.531-8.549-8.968-14.787-8.968-6.237 0-11.903 3.436-14.786 8.967-1.914 3.675-.489 8.205 3.184 10.119z"/><path d="m394.258 224.135c-4.142 0-7.5 3.358-7.5 7.5 0 4.725-3.838 8.569-8.556 8.569s-8.556-3.844-8.556-8.569c0-4.142-3.358-7.5-7.5-7.5s-7.5 3.358-7.5 7.5c0 12.996 10.567 23.569 23.556 23.569s23.556-10.573 23.556-23.569c0-4.142-3.358-7.5-7.5-7.5z"/><path d="m366.899 209.675c3.673 1.915 8.203.489 10.117-3.185.227-.436.736-.9 1.484-.9.749 0 1.258.465 1.485.9 1.337 2.566 3.951 4.035 6.657 4.035 1.167 0 2.353-.273 3.46-.851 3.673-1.914 5.099-6.444 3.185-10.117-2.883-5.531-8.549-8.968-14.787-8.968s-11.903 3.437-14.786 8.968c-1.914 3.674-.488 8.204 3.185 10.118z"/><path d="m62.531 333.058c-4.142 0-7.5 3.358-7.5 7.5v164.023c0 4.142 3.358 7.5 7.5 7.5s7.5-3.358 7.5-7.5v-164.023c0-4.142-3.358-7.5-7.5-7.5z"/><path d="m449.55 370.075c-4.142 0-7.5 3.358-7.5 7.5v127.006c0 4.142 3.358 7.5 7.5 7.5s7.5-3.358 7.5-7.5v-127.006c0-4.142-3.358-7.5-7.5-7.5z"/><path d="m209.408 461.608c-4.142 0-7.5 3.358-7.5 7.5v35.472c0 4.142 3.358 7.5 7.5 7.5s7.5-3.358 7.5-7.5v-35.472c0-4.142-3.357-7.5-7.5-7.5z"/><path d="m303.457 461.608c-4.142 0-7.5 3.358-7.5 7.5v35.472c0 4.142 3.358 7.5 7.5 7.5s7.5-3.358 7.5-7.5v-35.472c0-4.142-3.358-7.5-7.5-7.5z"/><path d="m256.84 347.934c-.227.436-.736.901-1.484.901-.749 0-1.258-.465-1.485-.901-1.914-3.673-6.443-5.1-10.117-3.185-3.673 1.914-5.099 6.444-3.185 10.117 2.883 5.532 8.549 8.968 14.787 8.968s11.903-3.437 14.786-8.968c1.915-3.673.488-8.203-3.185-10.117-3.674-1.914-8.203-.489-10.117 3.185z"/></g></svg>