<svg id="line" enable-background="new 0 0 36 36" height="512" viewBox="0 0 36 36" width="512" xmlns="http://www.w3.org/2000/svg"><g><path d="m4.167 27.623c0-6.917-3.583-11.667-3.583-15s1.916-10.333 17.249-10.333 17.583 9.417 17.583 13.083c.001 17.167-31.249 24.5-31.249 12.25z" fill="#efefef"/></g><g><path d="m28.5 8c-.827 0-1.5-.673-1.5-1.5s.673-1.5 1.5-1.5 1.5.673 1.5 1.5-.673 1.5-1.5 1.5zm0-2c-.276 0-.5.225-.5.5s.224.5.5.5.5-.225.5-.5-.224-.5-.5-.5z" fill="#a4afc1"/></g><g><path d="m21.25 24.32v-15.57c0-1.105-.895-2-2-2h-10.5c-1.105 0-2 .895-2 2v15.57c0 1.105.895 2 2 2h10.5c1.105 0 2-.895 2-2z" fill="#f3f3f1"/></g><g><circle cx="23.5" cy="23.5" fill="#2fdf84" r="5.75"/></g><g><path d="m18.25 16c0 2.35-1.9 4.25-4.25 4.25-1.18 0-2.24-.47-3.01-1.24l3.01-3.01v-4.25c2.35 0 4.25 1.9 4.25 4.25z" fill="#2fdf84"/></g><g><path d="m14 11.75v4.25l-3.01 3.01c-.77-.77-1.24-1.83-1.24-3.01 0-2.35 1.9-4.25 4.25-4.25z" fill="#2fdf84"/></g><g><path d="m9 24.32v-15.57c0-1.105.895-2 2-2h-2.25c-1.105 0-2 .895-2 2v15.57c0 1.105.895 2 2 2h2.25c-1.105 0-2-.895-2-2z" fill="#d5dbe1"/></g><g><path d="m20 23.5c0-2.79 1.988-5.115 4.625-5.638-.364-.072-.74-.112-1.125-.112-3.176 0-5.75 2.574-5.75 5.75s2.574 5.75 5.75 5.75c.385 0 .761-.039 1.125-.112-2.637-.523-4.625-2.848-4.625-5.638z" fill="#00b871"/></g><g><path d="m13.24 19.01 3.01-3.01v-3.594c-.654-.41-1.421-.656-2.25-.656v4.25l-3.01 3.01c.77.77 1.83 1.24 3.01 1.24.391 0 .762-.07 1.121-.168-.719-.197-1.368-.559-1.881-1.072z" fill="#00b871"/></g><g><path d="m12 16c0-1.521.802-2.843 2-3.594v-.656c-2.35 0-4.25 1.9-4.25 4.25 0 1.18.47 2.24 1.24 3.01l1.345-1.345c-.216-.51-.335-1.072-.335-1.665z" fill="#00b871"/></g><g><path d="m23.5 30c-3.584 0-6.5-2.916-6.5-6.5s2.916-6.5 6.5-6.5 6.5 2.916 6.5 6.5-2.916 6.5-6.5 6.5zm0-11.5c-2.757 0-5 2.243-5 5s2.243 5 5 5 5-2.243 5-5-2.243-5-5-5z"/></g><g><path d="m22.75 25.25h1.5v2.25h-1.5z"/></g><g><path d="m22.75 19.5h1.5v2.25h-1.5z"/></g><g><path d="m23.625 26.5h-2.125v-1.5h2.125c.207 0 .375-.168.375-.375s-.168-.375-.375-.375h-.25c-1.034 0-1.875-.841-1.875-1.875s.841-1.875 1.875-1.875h2.125v1.5h-2.125c-.207 0-.375.168-.375.375s.168.375.375.375h.25c1.034 0 1.875.841 1.875 1.875s-.841 1.875-1.875 1.875z"/></g><g><path d="m14.25 27h-5.5c-1.517 0-2.75-1.233-2.75-2.75v-15.5c0-1.517 1.233-2.75 2.75-2.75h10.5c1.517 0 2.75 1.233 2.75 2.75v5.5h-1.5v-5.5c0-.689-.561-1.25-1.25-1.25h-10.5c-.689 0-1.25.561-1.25 1.25v15.5c0 .689.561 1.25 1.25 1.25h5.5z"/></g><g><path d="m14 21c-2.757 0-5-2.243-5-5s2.243-5 5-5 5 2.243 5 5c0 .225-.014.45-.052.662l-1.477-.264c.023-.127.029-.263.029-.398 0-1.93-1.57-3.5-3.5-3.5s-3.5 1.57-3.5 3.5 1.57 3.5 3.5 3.5c.437 0 .847-.073 1.218-.218l.545 1.396c-.546.214-1.139.322-1.763.322z"/></g><g><path d="m11.521 19.54-1.061-1.061 2.79-2.79v-3.939h1.5v4.25c0 .199-.079.39-.22.53z"/></g></svg>