<svg id="Capa_1" enable-background="new 0 0 512 512" height="512" viewBox="0 0 512 512" width="512" xmlns="http://www.w3.org/2000/svg"><g><g><g><path d="m472 512c-6.883 0-12.883-4.685-14.552-11.362l-25-100c-1.121-4.48-.114-9.229 2.729-12.869s7.204-5.769 11.823-5.769h50c4.619 0 8.98 2.128 11.823 5.769s3.85 8.389 2.729 12.869l-25 100c-1.669 6.677-7.669 11.362-14.552 11.362z" fill="#ffd6aa"/><path d="m486.552 500.638 25-100c1.121-4.48.114-9.229-2.729-12.869s-7.204-5.769-11.823-5.769h-25v130c6.883 0 12.883-4.685 14.552-11.362z" fill="#fac68f"/><path d="m432 92v45c0 8.284 6.716 15 15 15h50c8.284 0 15-6.716 15-15v-45c0-8.284-6.716-15-15-15h-50c-8.285 0-15 6.716-15 15z" fill="#f2faff"/><g><path d="m512 137v-45c0-8.284-6.716-15-15-15h-25v75h25c8.284 0 15-6.716 15-15z" fill="#c8eafa"/></g><path d="m512 92h-80v-52c0-22.091 17.909-40 40-40 22.091 0 40 17.909 40 40z" fill="#ff5e82"/></g><path d="m432 137h80v260h-80z" fill="#bc8173"/><g><g><path d="m512 40c0-22.091-17.909-40-40-40v92h40z" fill="#b7457d"/><path d="m472 137h40v260h-40z" fill="#9d5e4a"/></g></g></g><g><path d="m365 512h-215l-37.5-30-37.5 30c-41.421 0-75-33.579-75-75v-86l30-15-30-15v-130l30-15-30-15v-86c0-41.421 33.579-75 75-75l37.5 30 37.5-30h215c8.284 0 15 6.716 15 15v146l-30 15 30 15v130l-30 15 30 15v146c0 8.284-6.716 15-15 15z" fill="#bee75e"/><g><path d="m380 256h-380v65l30 15-30 15v86c0 41.421 33.579 75 75 75l37.5-30 37.5 30h215c8.284 0 15-6.716 15-15v-146l-30-15 30-15z" fill="#00da80"/></g><path d="m150 512h-75v-512h75z" fill="#5e54ac"/><g><g><path d="m75 256h75v256h-75z" fill="#453d81"/></g></g><g><path d="m0 161h380v30h-380z" fill="#f2faff"/><path d="m0 321h380v30h-380z" fill="#c8eafa"/></g></g></g></svg>