<?xml version="1.0" encoding="iso-8859-1"?>
<!-- Generator: Adobe Illustrator 19.0.0, SVG Export Plug-In . SVG Version: 6.00 Build 0)  -->
<svg version="1.1" id="Capa_1" xmlns="http://www.w3.org/2000/svg" xmlns:xlink="http://www.w3.org/1999/xlink" x="0px" y="0px"
	 viewBox="0 0 512 512" style="enable-background:new 0 0 512 512;" xml:space="preserve">
<g>
	<g>
		<path d="M467.12,210.135C442.813,201.02,410.808,196,377,196c-40.144,0-80.574,7.169-107,21.125c0-0.732,0-136.436,0-141.125
			c0-13.245-7.786-31.954-44.88-45.865C200.813,21.02,168.808,16,135,16C72.398,16,0,34.603,0,76v360
			c0,13.246,7.786,31.955,44.88,45.865C69.188,490.98,101.192,496,135,496c36.885,0,92.713-6.99,120.213-30.919
			C279.26,485.469,328.341,496,377,496c63.109,0,135-18.788,135-60V256C512,242.755,504.214,224.046,467.12,210.135z M240,436
			c0,8.803-36.745,30.2-105,30.2c-67.962,0-105-21.314-105-30.2v-20.74C59.44,430.764,101.518,436,135,436
			c33.463,0,75.55-5.231,105-20.74V436z M240,376c0,8.803-36.745,30.2-105,30.2c-67.962,0-105-21.314-105-30.2
			c0-10.928,0-15.869,0-20.74C59.44,370.764,101.518,376,135,376c33.463,0,75.55-5.231,105-20.74C240,363.775,240,367.421,240,376z
			 M240,316c0,8.803-36.745,30.2-105,30.2c-67.962,0-105-21.314-105-30.2v-20.74C59.44,310.764,101.518,316,135,316
			c33.463,0,75.55-5.231,105-20.74V316z M240,256c0,8.803-36.745,30.2-105,30.2c-67.962,0-105-21.314-105-30.2v-20.74
			C59.43,250.76,101.507,256,135,256c33.454,0,75.551-5.23,105-20.74V256z M240,196c0,8.803-36.745,30.2-105,30.2
			c-67.962,0-105-21.314-105-30.2v-20.74C59.44,190.764,101.518,196,135,196c33.463,0,75.55-5.231,105-20.74V196z M240,136
			c0,8.803-36.745,30.2-105,30.2c-67.962,0-105-21.314-105-30.2v-20.74C59.44,130.764,101.518,136,135,136
			c33.463,0,75.55-5.231,105-20.74C240,122.936,240,128.23,240,136z M135,106.2C67.038,106.2,30,84.886,30,76
			c0-8.803,36.745-30.2,105-30.2c67.962,0,105,21.314,105,30.2C240,84.803,203.255,106.2,135,106.2z M482,436
			c0,8.803-36.745,30.2-105,30.2c-66.919,0-107-21.127-107-30.2v-21.125C296.426,428.831,336.856,436,377,436
			c33.463,0,75.55-5.231,105-20.74V436z M482,376c0,8.803-36.745,30.2-105,30.2c-66.919,0-107-21.127-107-30.2
			c0-23.504,0-14.561,0-21.125C296.426,368.831,336.856,376,377,376c33.463,0,75.55-5.231,105-20.74
			C482,363.235,482,368.455,482,376z M482,316c0,8.803-36.745,30.2-105,30.2c-66.919,0-107-21.127-107-30.2v-21.125
			C296.426,308.831,336.856,316,377,316c33.463,0,75.55-5.231,105-20.74V316z M377,286.2c-67.775,0-107-21.391-107-30.2
			c0-8.443,38.101-30.2,107-30.2c67.962,0,105,21.314,105,30.2C482,264.803,445.255,286.2,377,286.2z"/>
	</g>
</g>
<g>
</g>
<g>
</g>
<g>
</g>
<g>
</g>
<g>
</g>
<g>
</g>
<g>
</g>
<g>
</g>
<g>
</g>
<g>
</g>
<g>
</g>
<g>
</g>
<g>
</g>
<g>
</g>
<g>
</g>
</svg>
